<?xml version="1.0" encoding="utf-8"?>
<!-- Generator: Adobe Illustrator 16.0.3, SVG Export Plug-In . SVG Version: 6.00 Build 0)  -->
<!DOCTYPE svg PUBLIC "-//W3C//DTD SVG 1.1//EN" "http://www.w3.org/Graphics/SVG/1.1/DTD/svg11.dtd">
<svg version="1.1" id="Layer_1" xmlns="http://www.w3.org/2000/svg" xmlns:xlink="http://www.w3.org/1999/xlink" x="0px" y="0px"
	 width="423.277px" height="332px" viewBox="0 0 423.277 332" enable-background="new 0 0 423.277 332" xml:space="preserve">
<g>
	<g>
		<path fill="#44D62C" d="M309.943,143h-0.723v-17.745c0-57-46.209-103.209-103.21-103.209
			c-57.002,0-103.209,46.209-103.209,103.209V143h-4.345c-15.935,0-28.247,14.123-28.247,30.419v45.267
			c-0.402,15.796,12.078,28.924,27.873,29.325c0.125,0.004,0.249,0.007,0.374,0.008h26.798c3.796-0.179,6.729-3.401,6.549-7.196
			c-0.006-0.137-0.016-0.272-0.03-0.408v-88.724c0-4.346-2.536-8.692-6.519-8.692h-7.967v-17.745c0-49,39.723-88.724,88.724-88.724
			c49,0,88.723,39.723,88.723,88.724v17.745h-7.966c-3.984,0-6.519,4.346-6.519,8.692v88.724c-0.404,3.777,2.331,7.168,6.109,7.572
			c0.135,0.015,0.272,0.024,0.409,0.031h8.328l-0.724,1.087c-10.867,14.441-27.919,22.9-45.992,22.814
			c-3.956-19.401-22.892-31.922-42.292-27.965c-16.591,3.384-28.553,17.914-28.687,34.846c0.199,19.858,16.354,35.852,36.214,35.851
			c9.831-0.159,19.201-4.193,26.073-11.227c4.637-4.747,7.675-10.824,8.691-17.382c22.633,0.086,43.979-10.521,57.58-28.609
			l6.88-10.14c15.571-1.087,25.35-10.863,25.35-24.988v-45.267C338.189,161.47,326.602,143,309.943,143z M117.287,233.534H98.456
			c-7.798-0.189-13.966-6.664-13.776-14.462c0.004-0.129,0.008-0.257,0.015-0.387v-45.267c0-8.329,5.794-15.934,13.761-15.934
			h18.831V233.534z M229.188,293.286c-4.013,4.353-9.652,6.844-15.572,6.882c-11.782-0.188-21.344-9.59-21.728-21.367
			c-0.005-11.8,9.557-21.369,21.358-21.374c11.8-0.005,21.369,9.557,21.374,21.356c0,0.006,0,0.013,0,0.018
			C234.921,284.177,232.95,289.434,229.188,293.286z M323.705,222.309c0,9.777-9.417,11.226-13.762,11.226h-15.21v-76.049h15.21
			c7.968,0,13.762,11.227,13.762,19.556V222.309z"/>
	</g>
</g>
</svg>
